<?xml version="1.0" standalone="no"?>
<!DOCTYPE svg PUBLIC "-//W3C//DTD SVG 20010904//EN"
 "http://www.w3.org/TR/2001/REC-SVG-20010904/DTD/svg10.dtd">
<svg version="1.0" xmlns="http://www.w3.org/2000/svg"
 width="600.000000pt" height="600.000000pt" viewBox="0 0 600.000000 600.000000"
 preserveAspectRatio="xMidYMid meet">
<metadata>
Created by potrace 1.11, written by Peter Selinger 2001-2013
</metadata>
<g transform="translate(0.000000,600.000000) scale(0.100000,-0.100000)"
fill="#000000" stroke="none">
<path d="M2705 5904 c-570 -57 -1019 -212 -1453 -501 -519 -344 -917 -843
-1131 -1415 -52 -138 -122 -389 -120 -431 0 -12 18 46 39 128 66 258 150 471
272 690 349 627 933 1115 1618 1353 339 118 631 166 1010 166 501 0 904 -93
1345 -309 303 -149 543 -322 791 -569 246 -247 401 -461 549 -761 200 -404
295 -807 295 -1255 0 -448 -95 -851 -295 -1255 -136 -276 -296 -504 -504 -718
-143 -148 -166 -162 -118 -75 36 63 110 228 103 228 -2 0 5 33 16 73 24 91 35
324 19 417 -21 126 -29 152 -65 225 -57 116 -151 183 -231 165 -5 -1 -20 -3
-33 -4 -16 -1 -20 -5 -16 -16 4 -8 18 -53 32 -100 23 -76 25 -103 26 -260 1
-207 -15 -282 -93 -445 -59 -121 -98 -177 -194 -273 -106 -108 -231 -187 -366
-231 -82 -27 -84 -27 -79 8 2 17 1 28 -4 25 -4 -3 -8 5 -8 18 0 16 3 19 9 10
7 -11 9 -11 14 2 4 9 12 16 20 16 26 0 193 88 254 134 219 166 343 425 343
720 0 101 -25 240 -52 291 l-13 23 -210 -92 c-170 -75 -339 -153 -376 -173 -3
-2 -6 19 -6 47 -1 35 3 48 11 43 6 -3 8 -3 4 2 -4 4 23 24 60 43 37 19 72 39
77 45 6 5 -38 -15 -97 -45 -286 -148 -363 -227 -651 -668 -54 -82 -103 -150
-108 -150 -15 0 -78 34 -205 110 -199 121 -300 163 -589 244 -118 33 -195 43
-396 52 l-167 7 -22 38 c-14 25 -23 62 -25 106 -15 233 -27 373 -35 408 -5 22
-12 56 -15 75 -24 135 -156 410 -250 516 -5 7 -19 24 -30 40 -11 15 -48 60
-81 99 -154 177 -159 228 -39 385 227 298 339 561 359 848 2 26 7 92 11 147 9
127 20 181 46 217 38 52 58 55 359 52 257 -3 282 -1 380 20 191 43 288 83 509
210 62 37 135 74 160 83 43 15 49 15 81 -1 19 -9 42 -22 51 -29 14 -10 77 -97
137 -187 157 -238 359 -417 592 -526 62 -29 286 -123 313 -131 9 -3 17 -9 17
-14 0 -4 29 6 65 22 131 62 400 63 522 3 94 -45 150 -149 158 -294 l4 -75 -12
77 c-7 43 -16 80 -19 83 -3 3 -70 -32 -149 -77 l-144 -84 -7 -44 c-15 -90 -41
-110 -143 -110 l-65 0 0 -94 0 -93 63 -7 c66 -6 104 -27 124 -67 20 -38 18
-348 -3 -377 -8 -12 -19 -22 -25 -22 -5 0 0 9 11 20 18 18 20 33 20 185 0 226
-11 245 -141 245 l-59 0 0 109 0 108 82 5 c100 6 113 18 124 114 10 99 -1 185
-27 207 -22 17 -53 16 -74 -4 -5 -6 -11 -59 -13 -119 l-4 -110 -155 0 -156 0
6 -42 c4 -24 11 -60 17 -80 12 -40 91 -128 139 -152 38 -20 75 -71 68 -96 -5
-18 0 -20 39 -20 l44 0 -2 -147 -2 -148 -3 143 -4 142 -165 0 -166 0 4 -172
c5 -199 15 -237 87 -301 95 -86 262 -118 431 -82 156 33 233 103 266 247 14
61 14 61 9 13 -3 -28 -19 -78 -37 -114 -55 -107 -148 -156 -319 -168 -153 -10
-283 26 -369 103 l-43 39 7 -35 c30 -149 106 -257 235 -337 62 -38 111 -64
111 -57 0 4 6 1 14 -5 41 -34 331 6 446 61 53 26 131 96 172 156 16 23 41 75
55 115 35 100 43 290 18 432 -31 174 -32 194 -18 293 18 125 11 268 -17 341
-37 95 -104 175 -192 229 -31 19 -140 61 -173 66 -24 4 -85 49 -86 64 -3 45 9
180 17 194 10 16 6 216 -6 293 -20 132 -57 254 -107 348 -109 206 -276 375
-473 480 -72 38 -186 82 -240 92 -19 4 -64 15 -99 26 -116 35 -270 57 -371 54
-78 -3 -288 -36 -310 -50 -3 -2 -54 32 -113 74 -130 95 -277 166 -417 202 -58
14 -141 37 -185 50 -70 20 -102 23 -260 23 -168 0 -186 -2 -269 -28 -346 -106
-611 -380 -698 -722 l-23 -91 -105 -6 c-227 -12 -436 -111 -601 -284 -93 -98
-129 -150 -184 -266 -72 -153 -91 -244 -89 -442 1 -119 6 -155 29 -240 15 -55
31 -118 36 -140 5 -22 11 -50 14 -62 15 -64 73 -209 116 -290 l49 -92 -54
-103 c-114 -214 -148 -354 -143 -583 4 -157 18 -229 94 -470 73 -233 209 -423
414 -580 51 -38 232 -145 248 -145 9 0 111 -43 151 -64 70 -37 98 -75 141
-193 82 -227 206 -394 417 -561 38 -31 193 -115 257 -139 28 -11 27 -12 -15
-6 -25 3 -94 18 -155 34 -785 202 -1463 723 -1853 1424 -122 219 -206 432
-272 690 -21 83 -39 139 -39 125 -1 -42 68 -288 121 -430 278 -745 868 -1357
1618 -1678 522 -224 1126 -295 1702 -201 1055 172 1945 893 2312 1875 72 194
124 400 158 629 18 121 18 609 0 730 -34 229 -86 435 -158 629 -346 923 -1152
1619 -2137 1841 -221 50 -367 66 -627 70 -135 2 -263 1 -285 -1z m1458 -590
c256 -84 441 -244 563 -486 70 -140 95 -239 101 -404 6 -162 -4 -236 -48 -360
-28 -76 -33 -84 -53 -78 -11 4 -127 47 -256 96 -234 89 -450 185 -450 198 0 4
-2 23 -5 41 -4 26 -3 30 4 14 9 -19 10 -19 10 3 1 12 -4 22 -11 22 -6 0 -9 2
-6 5 3 3 40 -11 84 -31 173 -79 568 -214 583 -199 18 19 41 165 41 260 0 167
-44 329 -127 468 -63 107 -185 229 -284 285 -78 44 -228 101 -266 102 -43 0
-53 10 -53 55 l0 44 45 -4 c25 -2 83 -16 128 -31z m-153 -138 c0 -3 -4 -8 -10
-11 -5 -3 -10 -1 -10 4 0 6 5 11 10 11 6 0 10 -2 10 -4z m175 -38 c14 -6 24
-15 23 -20 -2 -4 -48 -71 -103 -149 -99 -139 -100 -140 -103 -105 -3 31 9 56
75 161 43 69 79 125 80 125 1 0 14 -5 28 -12z m183 -104 c22 -15 22 -16 -85
-142 -224 -265 -257 -302 -264 -291 -15 25 -8 35 213 322 55 70 102 127 106
127 4 0 18 -7 30 -16z m137 -146 c15 -22 10 -28 -207 -245 -123 -123 -227
-222 -232 -220 -17 6 -17 23 1 44 80 91 409 443 415 443 4 0 14 -10 23 -22z
m100 -188 c5 -23 -10 -39 -166 -170 -95 -80 -183 -153 -195 -163 -21 -16 -54
-14 -54 4 0 14 394 369 402 361 3 -4 9 -18 13 -32z m45 -203 c0 -32 -8 -39
-117 -117 -121 -86 -147 -98 -173 -81 -13 9 -12 12 5 25 11 8 76 57 144 110
69 53 128 96 133 96 4 0 8 -15 8 -33z m-4 -219 c-8 -41 -33 -61 -66 -53 -44
11 -43 22 7 53 61 39 67 39 59 0z m641 -875 c-3 -10 -5 -4 -5 12 0 17 2 24 5
18 2 -7 2 -21 0 -30z m-26 -77 c-12 -18 -37 -44 -56 -57 -40 -27 -43 -35 -17
-43 10 -4 34 -23 53 -43 l34 -37 -41 36 c-23 20 -51 39 -63 43 -26 8 -27 22
-2 30 26 8 101 91 102 112 0 11 3 13 6 6 2 -7 -5 -28 -16 -47z m36 -278 c-3
-7 -5 -2 -5 12 0 14 2 19 5 13 2 -7 2 -19 0 -25z m10 -225 c-2 -37 -3 -9 -3
62 0 72 1 102 3 68 2 -34 2 -93 0 -130z m-436 -173 c7 0 9 -3 6 -6 -10 -10
-37 16 -36 35 0 11 3 9 9 -6 5 -13 15 -23 21 -23z m-207 -813 l7 -29 -41 23
c-22 12 -40 25 -40 29 0 3 12 11 28 16 30 11 35 7 46 -39z m-95 -109 c120 -71
129 -80 113 -121 -7 -15 -27 -5 -150 76 -134 87 -142 94 -120 105 13 6 26 11
29 11 4 1 61 -31 128 -71z m-233 -51 c330 -242 324 -237 318 -265 -4 -15 -9
-30 -11 -34 -2 -4 -92 63 -201 149 -240 190 -220 172 -202 183 24 15 33 12 96
-33z m-190 -55 c10 -9 111 -98 224 -196 113 -99 206 -185 208 -191 2 -7 -5
-22 -15 -34 l-18 -22 -224 218 c-146 142 -222 223 -217 231 10 16 19 15 42 -6z
m241 -480 c64 -71 65 -73 48 -92 -10 -11 -22 -20 -26 -20 -5 0 -79 82 -164
181 -130 152 -155 186 -155 213 1 30 5 26 116 -89 63 -66 144 -153 181 -193z
m-178 -99 c75 -94 80 -103 62 -113 -36 -19 -47 -11 -109 79 -51 74 -62 96 -60
125 3 41 -5 48 107 -91z m-399 -647 c120 -23 320 -23 415 1 l20 5 -20 -15
c-34 -24 -294 -124 -420 -161 -248 -73 -474 -108 -774 -122 -114 -5 -152 -4
-147 5 4 6 18 11 32 11 50 0 237 58 324 100 39 19 206 125 220 140 3 3 28 17
55 32 44 24 59 27 130 24 44 -2 118 -10 165 -20z"/>
<path d="M4825 3850 c3 -5 17 -10 30 -10 13 0 27 5 30 10 4 6 -8 10 -30 10
-22 0 -34 -4 -30 -10z"/>
<path d="M4360 1955 c-14 -8 -20 -14 -14 -15 5 0 19 7 30 15 24 18 16 19 -16
0z"/>
<path d="M4280 1915 c-14 -8 -20 -14 -14 -15 5 0 19 7 30 15 24 18 16 19 -16
0z"/>
</g>
</svg>
